<?xml version="1.0" encoding="UTF-8"?>
<svg width="256" height="256" xmlns="http://www.w3.org/2000/svg">
  <!-- Player Body -->
  <rect x="96" y="80" width="64" height="80" fill="#E74C3C" rx="8"/>

  <!-- Player Head -->
  <circle cx="128" cy="60" r="30" fill="#FDBCB4"/>

  <!-- Hair -->
  <path d="M 98 50 Q 128 35, 158 50" stroke="none" fill="#654321" stroke-width="2"/>

  <!-- Eyes -->
  <circle cx="115" cy="60" r="3" fill="#000000"/>
  <circle cx="141" cy="60" r="3" fill="#000000"/>

  <!-- Shorts -->
  <rect x="96" y="160" width="64" height="40" fill="#2C3E50" rx="4"/>

  <!-- Legs -->
  <rect x="100" y="200" width="24" height="40" fill="#FDBCB4"/>
  <rect x="132" y="200" width="24" height="40" fill="#FDBCB4"/>

  <!-- Shoes -->
  <ellipse cx="112" cy="245" rx="16" ry="8" fill="#000000"/>
  <ellipse cx="144" cy="245" rx="16" ry="8" fill="#000000"/>

  <!-- Arms -->
  <rect x="70" y="90" width="26" height="60" fill="#FDBCB4" transform="rotate(-15 83 120)"/>
  <rect x="160" y="90" width="26" height="60" fill="#FDBCB4" transform="rotate(15 173 120)"/>

  <!-- Jersey Number -->
  <text x="128" y="125" font-family="Arial" font-size="24" fill="white" text-anchor="middle">10</text>

  <!-- Soccer Ball -->
  <circle cx="180" cy="220" r="20" fill="white" stroke="black" stroke-width="2"/>
  <path d="M 165 215 L 170 210 L 178 210 L 183 215 L 183 223 L 178 228 L 170 228 L 165 223 Z" fill="black"/>
</svg>